<svg width="35" height="35" viewBox="0 0 35 35" fill="none" xmlns="http://www.w3.org/2000/svg">
<g clip-path="url(#clip0_2022:2013)">
<path d="M30.5075 18.5624C30.5181 21.0045 30.5241 23.4452 30.5451 25.8873C30.5481 26.2077 30.4174 26.3754 30.1501 26.5296C25.3221 29.3012 20.4971 32.0802 15.675 34.8623C15.4197 35.0105 15.205 35.0659 14.9182 34.8967C12.8127 33.6554 10.6953 32.4306 8.5824 31.2013C8.59441 30.8944 8.8482 30.8045 9.05844 30.6802C10.862 29.6111 12.7061 28.6094 14.5037 27.5299C14.7184 27.4011 14.9377 27.2783 15.2005 27.2843C18.0553 25.6567 20.9115 24.0306 23.7663 22.403C23.8339 22.3207 23.8789 22.2203 23.963 22.1485C25.7981 21.006 27.7098 19.9953 29.569 18.8933C29.8468 18.7286 30.1126 18.4351 30.5075 18.5624Z" fill="#29B475"/>
<path d="M0.04347 16.4149C0.0314563 13.9758 0.0239476 11.5351 -7.99168e-05 9.0945C-0.00308336 8.76509 0.154597 8.61087 0.412894 8.46263C5.23793 5.69108 10.0615 2.91354 14.882 0.134501C15.1103 0.00273605 15.304 -0.0676383 15.5698 0.089581C17.6962 1.34284 19.8302 2.58113 21.9626 3.82391C21.892 4.16381 21.5932 4.28359 21.3409 4.42284C19.6229 5.38113 17.932 6.38734 16.2245 7.36509C15.9437 7.5253 15.6569 7.67803 15.3295 7.72594C12.8231 9.1499 10.3153 10.5724 7.81038 12.0008C7.44546 12.2089 7.09856 12.4485 6.74265 12.6746C5.72298 13.4772 4.54563 14.0222 3.43886 14.6795C2.54083 15.2126 1.64881 15.7561 0.726754 16.2472C0.515011 16.361 0.319787 16.5557 0.04347 16.4149Z" fill="#29B475"/>
<path d="M0.0434965 16.4151C2.07383 15.2547 4.10566 14.0958 6.13448 12.9323C6.3282 12.8215 6.50541 12.6763 6.74418 12.6748C6.75169 15.6874 6.77271 18.6985 6.7562 21.7112C6.75319 22.2218 6.90487 22.5077 7.35839 22.7638C9.9834 24.2506 12.5889 25.7719 15.2019 27.2827C13.2031 28.4536 11.2043 29.6245 9.20851 30.7984C8.99526 30.9242 8.79253 31.0665 8.58379 31.1997C5.83414 29.6305 3.08749 28.0583 0.334831 26.4981C0.0795378 26.3529 -5.34314e-05 26.1717 0.00295001 25.8962C0.0179672 22.7368 0.029981 19.576 0.0434965 16.4151Z" fill="#29B475"/>
<path d="M23.9165 22.2728C23.8669 22.3162 23.8159 22.3597 23.7663 22.4031C23.7498 20.8878 23.7498 20.8878 22.2466 20.8878C20.1487 20.8878 18.0507 20.8713 15.9528 20.8998C15.4152 20.9072 15.2095 20.7934 15.2215 20.2065C15.2605 18.4142 15.25 16.6204 15.226 14.8281C15.22 14.337 15.3176 14.1303 15.8748 14.1318C20.5706 14.1528 25.265 14.1498 29.9609 14.1348C30.4249 14.1333 30.5721 14.2681 30.5466 14.7263C30.5045 15.4959 30.5165 16.2685 30.506 17.0382C30.1051 17.6221 29.4443 17.8497 28.8722 18.1836C27.5161 18.9757 26.151 19.7543 24.786 20.5329C24.3249 20.7964 24.0426 21.0899 24.0922 21.6424C24.1117 21.8655 24.0862 22.0931 23.9165 22.2728Z" fill="#29B475"/>
<path d="M15.3295 7.72628C17.1766 6.64372 19.0253 5.56115 20.8724 4.47709C21.2373 4.26297 21.5992 4.04136 21.9626 3.82275C24.7183 5.39045 27.471 6.96115 30.2296 8.52286C30.4519 8.64864 30.545 8.80136 30.542 9.05741C30.5315 10.0801 30.527 11.1028 30.5435 12.1239C30.5495 12.4728 30.4384 12.6046 30.0749 12.6031C28.0746 12.5911 26.0744 12.5971 24.0726 12.5971C23.8413 12.5971 23.6371 12.5327 23.4343 12.4159C20.7357 10.8512 18.0326 9.28949 15.3295 7.72628Z" fill="#29B475"/>
<path d="M23.8083 22.403C23.8068 22.3521 23.8113 22.2997 23.8038 22.2502C23.6596 21.3264 23.933 20.7529 24.855 20.2843C26.7892 19.302 28.6288 18.1326 30.5075 17.0396C30.5075 17.5606 30.5075 18.0802 30.509 18.6013C28.4156 19.8201 26.3237 21.0389 24.2288 22.2532C24.1011 22.3251 23.948 22.3536 23.8083 22.403Z" fill="#29B475"/>
</g>
<defs>
<clipPath id="clip0_2022:2013">
<rect width="35" height="35" fill="white"/>
</clipPath>
</defs>
</svg>
